<?xml version="1.0" standalone="no"?><svg xmlns="http://www.w3.org/2000/svg" viewBox="0 0 1440 320"><path fill="#80abfa" fill-opacity="1" d="M0,128L30,138.7C60,149,120,171,180,160C240,149,300,107,360,112C420,117,480,171,540,186.7C600,203,660,181,720,149.3C780,117,840,75,900,90.7C960,107,1020,181,1080,202.7C1140,224,1200,192,1260,160C1320,128,1380,96,1410,80L1440,64L1440,320L1410,320C1380,320,1320,320,1260,320C1200,320,1140,320,1080,320C1020,320,960,320,900,320C840,320,780,320,720,320C660,320,600,320,540,320C480,320,420,320,360,320C300,320,240,320,180,320C120,320,60,320,30,320L0,320Z"></path></svg>