<svg xmlns="http://www.w3.org/2000/svg" width="530" height="530"><rect x="0" y="0" width="100%" height="100%" fill="rgb(56,131,151)"></rect><circle cx="0" cy="0" r="88.33333333333333" fill="#222" opacity="0.13266666666666665"></circle><circle cx="530" cy="0" r="88.33333333333333" fill="#222" opacity="0.13266666666666665"></circle><circle cx="0" cy="530" r="88.33333333333333" fill="#222" opacity="0.13266666666666665"></circle><circle cx="530" cy="530" r="88.33333333333333" fill="#222" opacity="0.13266666666666665"></circle><circle cx="88.33333333333333" cy="0" r="88.33333333333333" fill="#ddd" opacity="0.14133333333333334"></circle><circle cx="88.33333333333333" cy="530" r="88.33333333333333" fill="#ddd" opacity="0.14133333333333334"></circle><circle cx="176.66666666666666" cy="0" r="88.33333333333333" fill="#222" opacity="0.13266666666666665"></circle><circle cx="176.66666666666666" cy="530" r="88.33333333333333" fill="#222" opacity="0.13266666666666665"></circle><circle cx="265" cy="0" r="88.33333333333333" fill="#222" opacity="0.098"></circle><circle cx="265" cy="530" r="88.33333333333333" fill="#222" opacity="0.098"></circle><circle cx="353.3333333333333" cy="0" r="88.33333333333333" fill="#ddd" opacity="0.05466666666666667"></circle><circle cx="353.3333333333333" cy="530" r="88.33333333333333" fill="#ddd" opacity="0.05466666666666667"></circle><circle cx="441.66666666666663" cy="0" r="88.33333333333333" fill="#ddd" opacity="0.05466666666666667"></circle><circle cx="441.66666666666663" cy="530" r="88.33333333333333" fill="#ddd" opacity="0.05466666666666667"></circle><circle cx="0" cy="88.33333333333333" r="88.33333333333333" fill="#222" opacity="0.15"></circle><circle cx="530" cy="88.33333333333333" r="88.33333333333333" fill="#222" opacity="0.15"></circle><circle cx="88.33333333333333" cy="88.33333333333333" r="88.33333333333333" fill="#ddd" opacity="0.03733333333333333"></circle><circle cx="176.66666666666666" cy="88.33333333333333" r="88.33333333333333" fill="#ddd" opacity="0.07200000000000001"></circle><circle cx="265" cy="88.33333333333333" r="88.33333333333333" fill="#222" opacity="0.046"></circle><circle cx="353.3333333333333" cy="88.33333333333333" r="88.33333333333333" fill="#ddd" opacity="0.08933333333333333"></circle><circle cx="441.66666666666663" cy="88.33333333333333" r="88.33333333333333" fill="#222" opacity="0.13266666666666665"></circle><circle cx="0" cy="176.66666666666666" r="88.33333333333333" fill="#ddd" opacity="0.07200000000000001"></circle><circle cx="530" cy="176.66666666666666" r="88.33333333333333" fill="#ddd" opacity="0.07200000000000001"></circle><circle cx="88.33333333333333" cy="176.66666666666666" r="88.33333333333333" fill="#222" opacity="0.028666666666666667"></circle><circle cx="176.66666666666666" cy="176.66666666666666" r="88.33333333333333" fill="#222" opacity="0.08066666666666666"></circle><circle cx="265" cy="176.66666666666666" r="88.33333333333333" fill="#222" opacity="0.08066666666666666"></circle><circle cx="353.3333333333333" cy="176.66666666666666" r="88.33333333333333" fill="#ddd" opacity="0.03733333333333333"></circle><circle cx="441.66666666666663" cy="176.66666666666666" r="88.33333333333333" fill="#ddd" opacity="0.05466666666666667"></circle><circle cx="0" cy="265" r="88.33333333333333" fill="#ddd" opacity="0.14133333333333334"></circle><circle cx="530" cy="265" r="88.33333333333333" fill="#ddd" opacity="0.14133333333333334"></circle><circle cx="88.33333333333333" cy="265" r="88.33333333333333" fill="#222" opacity="0.046"></circle><circle cx="176.66666666666666" cy="265" r="88.33333333333333" fill="#222" opacity="0.028666666666666667"></circle><circle cx="265" cy="265" r="88.33333333333333" fill="#222" opacity="0.046"></circle><circle cx="353.3333333333333" cy="265" r="88.33333333333333" fill="#ddd" opacity="0.10666666666666667"></circle><circle cx="441.66666666666663" cy="265" r="88.33333333333333" fill="#222" opacity="0.15"></circle><circle cx="0" cy="353.3333333333333" r="88.33333333333333" fill="#ddd" opacity="0.08933333333333333"></circle><circle cx="530" cy="353.3333333333333" r="88.33333333333333" fill="#ddd" opacity="0.08933333333333333"></circle><circle cx="88.33333333333333" cy="353.3333333333333" r="88.33333333333333" fill="#ddd" opacity="0.05466666666666667"></circle><circle cx="176.66666666666666" cy="353.3333333333333" r="88.33333333333333" fill="#ddd" opacity="0.05466666666666667"></circle><circle cx="265" cy="353.3333333333333" r="88.33333333333333" fill="#222" opacity="0.06333333333333334"></circle><circle cx="353.3333333333333" cy="353.3333333333333" r="88.33333333333333" fill="#222" opacity="0.13266666666666665"></circle><circle cx="441.66666666666663" cy="353.3333333333333" r="88.33333333333333" fill="#222" opacity="0.08066666666666666"></circle><circle cx="0" cy="441.66666666666663" r="88.33333333333333" fill="#222" opacity="0.13266666666666665"></circle><circle cx="530" cy="441.66666666666663" r="88.33333333333333" fill="#222" opacity="0.13266666666666665"></circle><circle cx="88.33333333333333" cy="441.66666666666663" r="88.33333333333333" fill="#ddd" opacity="0.03733333333333333"></circle><circle cx="176.66666666666666" cy="441.66666666666663" r="88.33333333333333" fill="#222" opacity="0.08066666666666666"></circle><circle cx="265" cy="441.66666666666663" r="88.33333333333333" fill="#ddd" opacity="0.02"></circle><circle cx="353.3333333333333" cy="441.66666666666663" r="88.33333333333333" fill="#ddd" opacity="0.05466666666666667"></circle><circle cx="441.66666666666663" cy="441.66666666666663" r="88.33333333333333" fill="#ddd" opacity="0.14133333333333334"></circle></svg>