<?xml version="1.0" standalone="no"?><svg xmlns="http://www.w3.org/2000/svg" viewBox="0 0 1440 320"><path fill="#80abfa" fill-opacity="1" d="M0,320L30,314.7C60,309,120,299,180,250.7C240,203,300,117,360,80C420,43,480,53,540,74.7C600,96,660,128,720,149.3C780,171,840,181,900,176C960,171,1020,149,1080,154.7C1140,160,1200,192,1260,213.3C1320,235,1380,245,1410,250.7L1440,256L1440,0L1410,0C1380,0,1320,0,1260,0C1200,0,1140,0,1080,0C1020,0,960,0,900,0C840,0,780,0,720,0C660,0,600,0,540,0C480,0,420,0,360,0C300,0,240,0,180,0C120,0,60,0,30,0L0,0Z"></path></svg>