<?xml version="1.0" standalone="no"?><svg xmlns="http://www.w3.org/2000/svg" viewBox="0 0 1440 320"><path fill="#2a68c9" fill-opacity="1" d="M0,96L11.4,90.7C22.9,85,46,75,69,69.3C91.4,64,114,64,137,96C160,128,183,192,206,213.3C228.6,235,251,213,274,202.7C297.1,192,320,192,343,197.3C365.7,203,389,213,411,192C434.3,171,457,117,480,90.7C502.9,64,526,64,549,69.3C571.4,75,594,85,617,96C640,107,663,117,686,149.3C708.6,181,731,235,754,229.3C777.1,224,800,160,823,149.3C845.7,139,869,181,891,176C914.3,171,937,117,960,117.3C982.9,117,1006,171,1029,165.3C1051.4,160,1074,96,1097,85.3C1120,75,1143,117,1166,112C1188.6,107,1211,53,1234,64C1257.1,75,1280,149,1303,192C1325.7,235,1349,245,1371,213.3C1394.3,181,1417,107,1429,69.3L1440,32L1440,320L1428.6,320C1417.1,320,1394,320,1371,320C1348.6,320,1326,320,1303,320C1280,320,1257,320,1234,320C1211.4,320,1189,320,1166,320C1142.9,320,1120,320,1097,320C1074.3,320,1051,320,1029,320C1005.7,320,983,320,960,320C937.1,320,914,320,891,320C868.6,320,846,320,823,320C800,320,777,320,754,320C731.4,320,709,320,686,320C662.9,320,640,320,617,320C594.3,320,571,320,549,320C525.7,320,503,320,480,320C457.1,320,434,320,411,320C388.6,320,366,320,343,320C320,320,297,320,274,320C251.4,320,229,320,206,320C182.9,320,160,320,137,320C114.3,320,91,320,69,320C45.7,320,23,320,11,320L0,320Z"></path></svg>